<svg width="24" height="24" viewBox="0 0 24 24" fill="none" xmlns="http://www.w3.org/2000/svg">
<path d="M20 15.0233V15.8454C20 17.4384 20 18.2349 19.6002 18.6837C19.2004 19.1325 18.582 19.0303 17.3451 18.8259L13.0765 18.1203C11.6111 17.8781 10.8784 17.757 10.4392 17.1187C10 16.4804 10 15.5368 10 13.6495L10 8.35048C10 6.46319 10 5.51959 10.4392 4.88133C10.8784 4.24299 11.6111 4.12195 13.0765 3.87972L17.3451 3.17414C18.582 2.9697 19.2004 2.86744 19.6002 3.31629C20 3.76506 20 4.56163 20 6.15462V6.81309" stroke="#2CD281" stroke-width="1.3"/>
<path d="M16 16.2719V17.0425C16 18.536 16 19.2827 15.6002 19.7035C15.2004 20.1243 14.582 20.0284 13.3451 19.8368L9.07647 19.1753C7.61112 18.9482 6.87841 18.8347 6.43924 18.2363C6 17.6379 6 16.7532 6 14.9839V10.0161C6 8.24675 6 7.36211 6.43924 6.76374C6.87841 6.1653 7.61112 6.05183 9.07647 5.82474L13.3451 5.16326C14.582 4.97159 15.2004 4.87573 15.6002 5.29652C16 5.71725 16 6.46403 16 7.95746V8.57477" stroke="#2CD281"/>
</svg>
