<svg width="24" height="24" viewBox="0 0 24 24" fill="none" xmlns="http://www.w3.org/2000/svg">
<g clip-path="url(#clip0_10_3)">
<path d="M19.0001 17.3549V18.449C19.0001 20.5693 19.0001 21.6294 18.3204 22.2267C17.6408 22.8241 16.5894 22.688 14.4867 22.4159L7.23009 21.4768C4.73899 21.1545 3.49339 20.9933 2.74679 20.1438C2.00009 19.2942 2.00009 18.0383 2.00009 15.5265V8.47362C2.00009 5.96172 2.00009 4.70582 2.74679 3.85632C3.49339 3.00672 4.73899 2.84561 7.23009 2.52321L14.4867 1.58412C16.5894 1.31202 17.6408 1.17592 18.3204 1.77332C19.0001 2.37062 19.0001 3.43082 19.0001 5.55102V6.42742" stroke="#7AE0AF" stroke-width="2"/>
<path d="M11.8589 12.3722C11.5378 12.8209 10.9915 12.9798 10.6387 12.7273C10.286 12.4748 10.2603 11.9064 10.5815 11.4578L11.8589 12.3722ZM19.5934 0.708953C19.818 0.869694 19.8697 1.18202 19.709 1.40656L11.8589 12.3722L10.5815 11.4578L18.4315 0.492089C18.5923 0.267551 18.9046 0.215833 19.1291 0.376573L19.5934 0.708953Z" fill="#11E880"/>
<path d="M18.0101 1.04305L19.2969 1.95551" stroke="#0DC26A" stroke-width="0.3"/>
<path d="M10.2767 12.9762L11.0623 11.104L12.2127 11.4898L10.2767 12.9762Z" fill="#11E880" stroke="#11E880" stroke-width="0.3"/>
</g>
<defs>
<clipPath id="clip0_10_3">
<rect width="24" height="24" fill="white" transform="matrix(-1 0 0 -1 24.0001 24)"/>
</clipPath>
</defs>
</svg>
