<?xml version="1.0" encoding="utf-8"?>
<svg xmlns="http://www.w3.org/2000/svg" xmlns:xlink="http://www.w3.org/1999/xlink" style="margin: auto; background: rgba(241, 242, 243, 0); display: block; shape-rendering: auto;" width="200px" height="200px" viewBox="0 0 100 100" preserveAspectRatio="xMidYMid">
<g transform="rotate(0 50 50)">
  <rect x="45" y="23.5" rx="5" ry="4.5" width="10" height="9" fill="#2f253a">
    <animate attributeName="opacity" values="1;0" keyTimes="0;1" dur="0.6134969325153374s" begin="-0.5663048607833884s" repeatCount="indefinite"></animate>
  </rect>
</g><g transform="rotate(27.692307692307693 50 50)">
  <rect x="45" y="23.5" rx="5" ry="4.5" width="10" height="9" fill="#4eb08d">
    <animate attributeName="opacity" values="1;0" keyTimes="0;1" dur="0.6134969325153374s" begin="-0.5191127890514393s" repeatCount="indefinite"></animate>
  </rect>
</g><g transform="rotate(55.38461538461539 50 50)">
  <rect x="45" y="23.5" rx="5" ry="4.5" width="10" height="9" fill="#2f253a">
    <animate attributeName="opacity" values="1;0" keyTimes="0;1" dur="0.6134969325153374s" begin="-0.4719207173194903s" repeatCount="indefinite"></animate>
  </rect>
</g><g transform="rotate(83.07692307692308 50 50)">
  <rect x="45" y="23.5" rx="5" ry="4.5" width="10" height="9" fill="#4eb08d">
    <animate attributeName="opacity" values="1;0" keyTimes="0;1" dur="0.6134969325153374s" begin="-0.42472864558754125s" repeatCount="indefinite"></animate>
  </rect>
</g><g transform="rotate(110.76923076923077 50 50)">
  <rect x="45" y="23.5" rx="5" ry="4.5" width="10" height="9" fill="#2f253a">
    <animate attributeName="opacity" values="1;0" keyTimes="0;1" dur="0.6134969325153374s" begin="-0.37753657385559225s" repeatCount="indefinite"></animate>
  </rect>
</g><g transform="rotate(138.46153846153845 50 50)">
  <rect x="45" y="23.5" rx="5" ry="4.5" width="10" height="9" fill="#4eb08d">
    <animate attributeName="opacity" values="1;0" keyTimes="0;1" dur="0.6134969325153374s" begin="-0.3303445021236432s" repeatCount="indefinite"></animate>
  </rect>
</g><g transform="rotate(166.15384615384616 50 50)">
  <rect x="45" y="23.5" rx="5" ry="4.5" width="10" height="9" fill="#2f253a">
    <animate attributeName="opacity" values="1;0" keyTimes="0;1" dur="0.6134969325153374s" begin="-0.2831524303916942s" repeatCount="indefinite"></animate>
  </rect>
</g><g transform="rotate(193.84615384615384 50 50)">
  <rect x="45" y="23.5" rx="5" ry="4.5" width="10" height="9" fill="#4eb08d">
    <animate attributeName="opacity" values="1;0" keyTimes="0;1" dur="0.6134969325153374s" begin="-0.23596035865974516s" repeatCount="indefinite"></animate>
  </rect>
</g><g transform="rotate(221.53846153846155 50 50)">
  <rect x="45" y="23.5" rx="5" ry="4.5" width="10" height="9" fill="#2f253a">
    <animate attributeName="opacity" values="1;0" keyTimes="0;1" dur="0.6134969325153374s" begin="-0.18876828692779613s" repeatCount="indefinite"></animate>
  </rect>
</g><g transform="rotate(249.23076923076923 50 50)">
  <rect x="45" y="23.5" rx="5" ry="4.5" width="10" height="9" fill="#4eb08d">
    <animate attributeName="opacity" values="1;0" keyTimes="0;1" dur="0.6134969325153374s" begin="-0.1415762151958471s" repeatCount="indefinite"></animate>
  </rect>
</g><g transform="rotate(276.9230769230769 50 50)">
  <rect x="45" y="23.5" rx="5" ry="4.5" width="10" height="9" fill="#2f253a">
    <animate attributeName="opacity" values="1;0" keyTimes="0;1" dur="0.6134969325153374s" begin="-0.09438414346389806s" repeatCount="indefinite"></animate>
  </rect>
</g><g transform="rotate(304.61538461538464 50 50)">
  <rect x="45" y="23.5" rx="5" ry="4.5" width="10" height="9" fill="#4eb08d">
    <animate attributeName="opacity" values="1;0" keyTimes="0;1" dur="0.6134969325153374s" begin="-0.04719207173194903s" repeatCount="indefinite"></animate>
  </rect>
</g><g transform="rotate(332.3076923076923 50 50)">
  <rect x="45" y="23.5" rx="5" ry="4.5" width="10" height="9" fill="#2f253a">
    <animate attributeName="opacity" values="1;0" keyTimes="0;1" dur="0.6134969325153374s" begin="0s" repeatCount="indefinite"></animate>
  </rect>
</g>
<!-- [ldio] generated by https://loading.io/ --></svg>