<svg id="Слой_1" data-name="Слой 1" xmlns="http://www.w3.org/2000/svg" viewBox="0 0 1500 1500"><defs><style>.cls-1{fill:#272726;}</style></defs><rect class="cls-1" x="452.18" y="1210" width="407.23" height="40"/><path class="cls-1" d="M1190.07,356.26v10.82H859.41V1190H452.18V852.63H760.89V765.71H452.18V454H771.83V367.08H369V1190H356.33a46.32,46.32,0,0,1-46.26-46.27V356.26A46.31,46.31,0,0,1,356.33,310h787.48A46.31,46.31,0,0,1,1190.07,356.26Z"/><path class="cls-1" d="M1250,350.53v16.55h-39.93V356.26A66.34,66.34,0,0,0,1143.81,290H356.33a66.34,66.34,0,0,0-66.26,66.26v787.47A66.34,66.34,0,0,0,356.33,1210H369v40H357.36c-59.3,0-107.36-45-107.36-100.53V350.53C250,295,298.06,250,357.36,250h785.28C1201.94,250,1250,295,1250,350.53Z"/><rect class="cls-1" x="942.6" y="454.01" width="247.47" height="311.7"/><rect class="cls-1" x="1210.07" y="454.01" width="39.93" height="311.7"/><path class="cls-1" d="M1143.81,1190H942.6V852.63h247.47v291.1A46.32,46.32,0,0,1,1143.81,1190Z"/><path class="cls-1" d="M1250,852.63v296.84c0,55.52-48.06,100.53-107.36,100.53h-200v-40h201.21a66.34,66.34,0,0,0,66.26-66.27V852.63Z"/></svg>